<svg t="1710404824105" class="icon" viewBox="0 0 1024 1024" version="1.1" xmlns="http://www.w3.org/2000/svg" p-id="4033" width="24" height="24"><path d="M692.375407 346.294092c11.47454 0 22.843728 0.838762 34.10649 2.411551-30.578813-142.716632-182.902716-248.733647-356.670796-248.733647-194.377256 0-352.51512 132.66309-352.51512 297.398773 0 95.993517 52.257547 174.785097 139.604432 236.013749l-34.899252 105.022739 121.928387-61.170139c43.661705 8.692867 78.666034 17.596982 122.327734 17.596982 10.952943 0 21.800633-0.522769 32.64859-1.572789-6.808829-23.366348-10.742235-47.821134-10.742235-73.208935C387.862947 475.467196 521.969711 346.294092 692.375407 346.294092zM497.815113 245.110617c26.21036 0 43.661705 17.28599 43.661705 43.556374 0 26.21036-17.451345 43.661705-43.661705 43.661705-26.21036 0-52.363901-17.451345-52.363901-43.661705C445.451212 262.396607 471.604753 245.110617 497.815113 245.110617zM244.899909 332.328696c-26.21036 0-52.522163-17.451345-52.522163-43.661705 0-26.27036 26.311803-43.556374 52.522163-43.556374 26.21036 0 43.556374 17.28599 43.556374 43.556374C288.456283 314.877351 271.110269 332.328696 244.899909 332.328696zM1024.021674 629.728895c0-139.393724-139.498032-252.893075-296.348303-252.893075-165.978836 0-296.664296 113.499351-296.664296 252.893075 0 139.709717 130.685461 252.893075 296.664296 252.893075 34.793921 0 69.798251-8.798198 104.697769-17.596982l95.783832 52.574786-26.21036-87.319544C970.089097 778.355505 1024.021674 708.394931 1024.021674 629.728895zM615.443873 586.067189c-17.451345 0-34.899252-17.28599-34.899252-34.793921 0-17.28599 17.451345-34.793921 34.899252-34.793921 26.27036 0 43.556374 17.507931 43.556374 34.793921C658.998224 568.781199 641.71321 586.067189 615.443873 586.067189zM815.938898 586.067189c-17.28599 0-34.687521-17.28599-34.687521-34.793921 0-17.28599 17.401507-34.793921 34.687521-34.793921 26.108917 0 43.661705 17.507931 43.661705 34.793921C859.60058 568.781199 842.047815 586.067189 815.938898 586.067189z" fill="#09BB07" p-id="4034"></path></svg>